<svg xmlns="http://www.w3.org/2000/svg" width="24" height="24" viewBox="0 0 24 24">
  <g id="vuesax_bold_notification" data-name="vuesax/bold/notification" transform="translate(-236 -188)">
    <g id="notification">
      <path id="Vector" d="M6,3A3,3,0,1,1,3,0,3,3,0,0,1,6,3Z" transform="translate(252 190)" fill="#198535"/>
      <path id="Vector-2" data-name="Vector" d="M19,7.4v6.08c0,.14-.01.28-.02.41s-.02.23-.04.35-.03.24-.05.35a4.769,4.769,0,0,1-4.3,4.3c-.11.02-.23.04-.35.05s-.23.03-.35.04-.27.02-.41.02H5.52c-.14,0-.28-.01-.41-.02s-.23-.02-.35-.04-.24-.03-.35-.05a4.769,4.769,0,0,1-4.3-4.3c-.02-.11-.04-.23-.05-.35s-.03-.23-.04-.35S0,13.62,0,13.48V5.52c0-.14.01-.28.02-.41s.02-.23.04-.35.03-.24.05-.35A4.769,4.769,0,0,1,4.41.11c.11-.02.23-.04.35-.05s.23-.03.35-.04S5.38,0,5.52,0H11.6a1,1,0,0,1,.98,1.2c0,.02-.01.04-.01.06-.02.1-.03.2-.05.31a4.65,4.65,0,0,0,.07,1.33,3.178,3.178,0,0,0,.09.33,3.436,3.436,0,0,0,.38.93,4.05,4.05,0,0,0,.21.35,4.717,4.717,0,0,0,1.22,1.22,4.05,4.05,0,0,0,.35.21,3.436,3.436,0,0,0,.93.38,3.178,3.178,0,0,0,.33.09,4.65,4.65,0,0,0,1.33.07c.11-.02.21-.03.31-.05.02,0,.04-.01.06-.01A1,1,0,0,1,19,7.4Z" transform="translate(238 191)" fill="#198535"/>
      <path id="Vector-3" data-name="Vector" d="M0,0H24V24H0Z" transform="translate(260 212) rotate(180)" fill="none" opacity="0"/>
    </g>
  </g>
</svg>
