<svg xmlns="http://www.w3.org/2000/svg" width="180.18" height="180.18" viewBox="0 0 180.18 180.18">
  <g id="jade_logo" transform="translate(-159.77 -159.76)">
    <g id="Group_39629" data-name="Group 39629">
      <path id="Path_46226" data-name="Path 46226" d="M339.95,249.85a90.09,90.09,0,1,1-90.09-90.09,90.09,90.09,0,0,1,90.09,90.09Zm-17.05-.02a73.05,73.05,0,1,0-73.05,73.05,73.05,73.05,0,0,0,73.05-73.05Z"/>
      <path id="Path_46227" data-name="Path 46227" d="M221.81,277.45l-14.01,8.02a1.38,1.38,0,0,1-2.07-1.21l.13-66.74a1.38,1.38,0,0,1,2.06-1.2l41.13,23.62a1.38,1.38,0,0,0,1.38,0l40.75-23.42a1.38,1.38,0,0,1,2.07,1.19v15.6a1.38,1.38,0,0,1-.69,1.2l-42.1,24.36a1.38,1.38,0,0,1-1.38,0l-24.5-14.05a1.38,1.38,0,0,0-2.07,1.2l-.01,30.23a1.38,1.38,0,0,1-.69,1.2Z"/>
      <path id="Path_46228" data-name="Path 46228" d="M259.08,262.5l12.64-7.33a1.22,1.22,0,0,1,1.25.02l19.7,12.03a1.22,1.22,0,0,1,.58,1.04v15.02a1.22,1.22,0,0,1-1.86,1.04L259.05,264.6a1.22,1.22,0,0,1,.03-2.1Z"/>
    </g>
  </g>
</svg>
