<svg xmlns="http://www.w3.org/2000/svg" width="35" height="35" viewBox="0 0 35 35">
  <g id="vuesax_bold_box-tick" data-name="vuesax/bold/box-tick" transform="translate(-428 -188)">
    <g id="box-tick" transform="translate(428 188)">
      <g id="Group" transform="translate(2.917 2.96)">
        <path id="Vector" d="M20.227,4.783,11.987.35A2.946,2.946,0,0,0,9.2.35L.977,4.783A1.925,1.925,0,0,0,0,6.46,1.862,1.862,0,0,0,.977,8.137l8.24,4.433a2.96,2.96,0,0,0,1.385.35,2.917,2.917,0,0,0,1.385-.35l8.24-4.433A1.89,1.89,0,0,0,21.2,6.46,1.925,1.925,0,0,0,20.227,4.783Z" transform="translate(2.523 0)" fill="#c9cbd5"/>
        <path id="Vector-2" data-name="Vector" d="M10.383,4.027,2.727.206A1.873,1.873,0,0,0,0,1.883V9.117a3.287,3.287,0,0,0,1.823,2.946l7.656,3.821a1.9,1.9,0,0,0,.846.2,2.036,2.036,0,0,0,.992-.277,1.89,1.89,0,0,0,.89-1.6V6.973A3.341,3.341,0,0,0,10.383,4.027Z" transform="translate(0 10.09)" fill="#c9cbd5"/>
        <path id="Vector-3" data-name="Vector" d="M12.192,1.883V5.471A7.838,7.838,0,0,0,10,5.179,8.772,8.772,0,0,0,4.55,7.089a8.625,8.625,0,0,0-3.3,6.84,7.942,7.942,0,0,0,.277,2.115A1.588,1.588,0,0,1,.89,15.8,1.847,1.847,0,0,1,0,14.206V6.973A3.3,3.3,0,0,1,1.808,4.027L9.465.206a1.873,1.873,0,0,1,2.727,1.677Z" transform="translate(14.058 10.09)" fill="#c9cbd5"/>
      </g>
      <path id="Vector-4" data-name="Vector" d="M0,0H35V35H0Z" fill="none" opacity="0"/>
      <path id="Vector-5" data-name="Vector" d="M11.637,2.406a6.548,6.548,0,0,0-9.173-.962A6.487,6.487,0,0,0,0,6.563,6.562,6.562,0,0,0,.948,9.946a6.32,6.32,0,0,0,1.473,1.692h.015a6.5,6.5,0,0,0,8.444-.146,6.31,6.31,0,0,0,1.3-1.546,6.562,6.562,0,0,0,.948-3.383A6.491,6.491,0,0,0,11.637,2.406ZM9.858,5.746l-3.5,3.238a1.112,1.112,0,0,1-.744.292,1.082,1.082,0,0,1-.773-.321L3.223,7.335A1.093,1.093,0,0,1,4.769,5.79l.875.875L8.371,4.142A1.1,1.1,0,0,1,9.917,4.2,1.075,1.075,0,0,1,9.858,5.746Z" transform="translate(20.417 20.446)" fill="#c9cbd5"/>
    </g>
  </g>
</svg>
