<svg xmlns="http://www.w3.org/2000/svg" width="13.49" height="14.945" viewBox="0 0 13.49 14.945">
  <path id="Path_46196" data-name="Path 46196" d="M9.348,0A3.468,3.468,0,0,1,13.09,3.789h0v6.967a3.457,3.457,0,0,1-3.737,3.789h-5.6a.534.534,0,0,1,0-1.06h5.59a2.4,2.4,0,0,0,2.685-2.729h0V3.789A2.4,2.4,0,0,0,9.348,1.06H3.737A2.4,2.4,0,0,0,1.045,3.789h0v6.967a2.4,2.4,0,0,0,2.692,2.729.534.534,0,0,1,0,1.06A3.46,3.46,0,0,1,0,10.756H0V3.789A3.457,3.457,0,0,1,3.737,0H9.348Zm-.19,9.825a.527.527,0,0,1,0,1.053H3.914a.527.527,0,0,1,0-1.053H9.158Zm0-3.082a.523.523,0,0,1,.5.247.539.539,0,0,1,0,.566.523.523,0,0,1-.5.247H3.914a.534.534,0,0,1,0-1.06H9.158ZM5.915,3.667a.534.534,0,0,1,0,1.06H3.92a.534.534,0,0,1,0-1.06H5.915Z" transform="translate(0.2 0.2)" fill="#007b85" stroke="#007b85" stroke-width="0.4"/>
</svg>
