<svg xmlns="http://www.w3.org/2000/svg" width="14.616" height="14.575" viewBox="0 0 14.616 14.575">
  <path id="Path_46187" data-name="Path 46187" d="M16,6.795V6.759a7.209,7.209,0,0,0-13.538,0s0,0,0,.036a7.108,7.108,0,0,0,0,4.844s0,0,0,.036a7.209,7.209,0,0,0,13.538,0v-.036a7.108,7.108,0,0,0,0-4.844ZM3.64,10.658a5.637,5.637,0,0,1,0-2.883H4.981a12.06,12.06,0,0,0,0,2.883ZM4.231,12.1H5.241a8.758,8.758,0,0,0,.721,1.853A5.767,5.767,0,0,1,4.231,12.1ZM5.241,6.333H4.231A5.767,5.767,0,0,1,5.94,4.481a8.758,8.758,0,0,0-.7,1.853ZM8.5,14.767A4.57,4.57,0,0,1,6.747,12.1H8.5Zm0-4.109H6.437a10.352,10.352,0,0,1,0-2.883H8.5Zm0-4.325H6.747A4.57,4.57,0,0,1,8.5,3.666Zm5.709,0H13.2a8.758,8.758,0,0,0-.721-1.853,5.767,5.767,0,0,1,1.73,1.853ZM9.941,3.666a4.57,4.57,0,0,1,1.752,2.667H9.941Zm0,11.1V12.1h1.752A4.57,4.57,0,0,1,9.941,14.767ZM12,10.658H9.941V7.775H12a10.351,10.351,0,0,1,0,2.883Zm.5,3.294A8.758,8.758,0,0,0,13.22,12.1H14.23A5.767,5.767,0,0,1,12.5,13.953Zm2.3-3.294H13.458a11.649,11.649,0,0,0,.087-1.442,11.735,11.735,0,0,0-.087-1.442H14.8A5.637,5.637,0,0,1,14.8,10.658Z" transform="translate(-1.926 -1.929)" fill="#007b85" stroke="#fff" stroke-width="0.2"/>
</svg>
