<svg xmlns="http://www.w3.org/2000/svg" width="18" height="18" viewBox="0 0 18 18">
  <g id="vuesax_outline_message-question" data-name="vuesax/outline/message-question" transform="translate(-620 -252)">
    <g id="message-question" transform="translate(620 252)">
      <path id="Vector" d="M5.063,15.472a1.323,1.323,0,0,1-.623-.157,1.306,1.306,0,0,1-.69-1.155V13.1A4.044,4.044,0,0,1,0,8.812v-4.5A4.082,4.082,0,0,1,4.312,0h7.5a4.082,4.082,0,0,1,4.312,4.312v4.5a4.082,4.082,0,0,1-4.312,4.313H8.985l-3.2,2.13A1.332,1.332,0,0,1,5.063,15.472ZM4.312,1.117A2.988,2.988,0,0,0,1.125,4.3v4.5a2.988,2.988,0,0,0,3.187,3.188.567.567,0,0,1,.563.563v1.6a.189.189,0,0,0,.293.157l3.338-2.22a.578.578,0,0,1,.315-.1h3a2.988,2.988,0,0,0,3.188-3.188V4.3A2.988,2.988,0,0,0,11.82,1.117Z" transform="translate(0.937 1.267)" fill="#007b85"/>
      <path id="Vector-2" data-name="Vector" d="M1.807,4.5a.567.567,0,0,1-.562-.562V3.78a1.745,1.745,0,0,1,.877-1.463C2.4,2.13,2.49,2,2.49,1.808a.682.682,0,1,0-1.365,0,.567.567,0,0,1-.562.563A.567.567,0,0,1,0,1.808a1.807,1.807,0,1,1,3.615,0,1.72,1.72,0,0,1-.862,1.44c-.293.2-.383.323-.383.533v.157A.562.562,0,0,1,1.807,4.5Z" transform="translate(7.192 4.582)" fill="#007b85"/>
      <path id="Vector-3" data-name="Vector" d="M.563,1.125A.563.563,0,1,1,1.125.563.562.562,0,0,1,.563,1.125Z" transform="translate(8.438 9.825)" fill="#007b85"/>
      <path id="Vector-4" data-name="Vector" d="M0,0H18V18H0Z" fill="none" opacity="0"/>
    </g>
  </g>
</svg>
