<svg id="vuesax_bold_bitcoin-_btc_" data-name="vuesax/bold/bitcoin-(btc)" xmlns="http://www.w3.org/2000/svg" width="24" height="24" viewBox="0 0 24 24">
  <g id="bitcoin-_btc_" data-name="bitcoin-(btc)">
    <path id="BG_203" data-name="BG 203" d="M0,0H24V24H0Z" fill="none"/>
    <path id="Vector" d="M5.44,0H0V2.83H5.44A1.6,1.6,0,0,0,7.17,1.41,1.6,1.6,0,0,0,5.44,0Z" transform="translate(9.53 12.75)" fill="#c9cbd5"/>
    <path id="Vector-2" data-name="Vector" d="M10,0A10,10,0,1,0,20,10,10,10,0,0,0,10,0Zm2.97,15.08H11.32V16.5a.75.75,0,0,1-1.5,0V15.08H8.61V16.5a.75.75,0,0,1-1.5,0V15.08H5.05a.75.75,0,1,1,0-1.5h.98V6.42H5.05a.75.75,0,0,1,0-1.5H7.11V3.5a.75.75,0,0,1,1.5,0V4.92H9.82V3.5a.75.75,0,0,1,1.5,0V4.92h.88a3,3,0,0,1,2.92,2.92,2.932,2.932,0,0,1-.62,1.78,2.88,2.88,0,0,1,1.7,2.56A3.089,3.089,0,0,1,12.97,15.08Z" transform="translate(2 2)" fill="#c9cbd5"/>
    <path id="Vector-3" data-name="Vector" d="M6.09,1.42A1.494,1.494,0,0,0,4.67,0H0V2.83H4.67A1.411,1.411,0,0,0,6.09,1.42Z" transform="translate(9.53 8.41)" fill="#c9cbd5"/>
    <path id="Vector-4" data-name="Vector" d="M0,0H24V24H0Z" fill="none" opacity="0"/>
  </g>
</svg>
