<svg xmlns="http://www.w3.org/2000/svg" width="24" height="24" viewBox="0 0 24 24">
  <g id="vuesax_bold_judge" data-name="vuesax/bold/judge" transform="translate(-684 -572)">
    <g id="judge">
      <path id="Vector" d="M0,0H24V24H0Z" transform="translate(684 572)" fill="none" opacity="0"/>
      <path id="Vector-2" data-name="Vector" d="M6.01,6.01a.748.748,0,0,1-1.06,0L0,1.06.53.53,1.06,0,6.01,4.95A.754.754,0,0,1,6.01,6.01Z" transform="translate(698.53 585.03)" fill="#c9cbd5"/>
      <path id="Vector-3" data-name="Vector" d="M2.922.294l5.8,5.8a1,1,0,0,1,0,1.41l-.9.91a2.04,2.04,0,0,1-2.89,0L.593,4.074a2.046,2.046,0,0,1,0-2.88L1.5.284A1.017,1.017,0,0,1,2.922.294Z" transform="translate(687.547 580.986)" fill="#c9cbd5"/>
      <path id="Vector-4" data-name="Vector" d="M11.33,7.822l-3.81,3.8a1.014,1.014,0,0,1-1.44,0L.3,5.843A1.014,1.014,0,0,1,.3,4.4L4.11.593a2.046,2.046,0,0,1,2.88,0l4.34,4.34A2.058,2.058,0,0,1,11.33,7.822Z" transform="translate(691.26 574.367)" fill="#c9cbd5"/>
      <path id="Vector-5" data-name="Vector" d="M6.75,1.5h-6A.755.755,0,0,1,0,.75.755.755,0,0,1,.75,0h6A.755.755,0,0,1,7.5.75.755.755,0,0,1,6.75,1.5Z" transform="translate(685.25 592.25)" fill="#c9cbd5"/>
    </g>
  </g>
</svg>
