<svg xmlns="http://www.w3.org/2000/svg" width="24" height="24" viewBox="0 0 24 24">
  <g id="vuesax_bold_command" data-name="vuesax/bold/command" transform="translate(-108 -188)">
    <g id="command">
      <path id="Vector" d="M0,0H24V24H0Z" transform="translate(108 188)" fill="none" opacity="0"/>
      <path id="Vector-2" data-name="Vector" d="M0,0H8V8H0Z" transform="translate(116 196)" fill="#c9cbd5"/>
      <path id="Vector-3" data-name="Vector" d="M0,3A3,3,0,0,0,6,3V0H3A3.009,3.009,0,0,0,0,3Z" transform="translate(110 204)" fill="#c9cbd5"/>
      <path id="Vector-4" data-name="Vector" d="M3,0A3,3,0,0,0,3,6H6V3A3.009,3.009,0,0,0,3,0Z" transform="translate(110 190)" fill="#c9cbd5"/>
      <path id="Vector-5" data-name="Vector" d="M6,3A3,3,0,0,0,0,3V6H3A3.009,3.009,0,0,0,6,3Z" transform="translate(124 190)" fill="#c9cbd5"/>
      <path id="Vector-6" data-name="Vector" d="M3,0H0V3A3,3,0,1,0,3,0Z" transform="translate(124 204)" fill="#c9cbd5"/>
    </g>
  </g>
</svg>
